#!OML:ASF H:\charlestonDancing\Project 1\Capture day 1\Session 1\femaleDancer.ASF
:FULLY-SPECIFIED
:DEGREES
285
root -0.663775 17.7444 -2.21163 -165.26 -97.2879 166.402
lowerback 26.1358 2.8325 9.17228
upperback 5.5813 5.76976 1.16196
thorax -7.39118 2.42821 -5.70768
lowerneck 0.952943 -1.85257 0.830029
upperneck 1.80766 -2.44245 -3.02136
head 0.344772 -1.23279 -1.05987
rclavicle -6.52014e-014 -1.03368e-014
rhumerus -38.8703 10.0932 -77.7797
rradius 47.0445
rwrist 17.7123
rhand -38.8736 -37.3448
rfingers 7.12502
rthumb -11.8818 -66.9876
lclavicle -6.52014e-014 -1.03368e-014
lhumerus -59.9027 26.9286 4.95594
lradius 138.758
lwrist 13.2856
lhand -10.9708 -10.3137
lfingers 7.12502
lthumb 15.0486 19.1194
rfemur -18.6062 -3.04834 26.8259
rtibia 35.3541
rfoot -17.1582 0.754714
rtoes -12.2351
lfemur -48.5436 -12.9515 -17.723
ltibia 47.5395
lfoot -12.2322 -14.8491
ltoes -31.3321
286
root -0.659746 17.7619 -2.21447 -168.773 -98.4911 170.025
lowerback 26.1462 2.45357 9.11042
upperback 5.60689 5.26687 1.13652
thorax -7.4483 2.18867 -5.55708
lowerneck 1.15067 -1.87518 1.31902
upperneck 1.71283 -2.47062 -2.63292
head 0.281537 -1.23901 -1.01831
rclavicle -3.02153e-014 3.49861e-014
rhumerus -38.3326 9.28888 -77.3196
rradius 47.0704
rwrist 17.7972
rhand -39.4041 -37.5318
rfingers 7.12502
rthumb -12.3933 -67.1444
lclavicle -3.02153e-014 3.49861e-014
lhumerus -59.8993 27.6538 5.7432
lradius 139.13
lwrist 12.7795
lhand -10.8084 -10.49
lfingers 7.12502
lthumb 15.205 18.9313
rfemur -18.4502 -3.59185 26.5028
rtibia 34.906
rfoot -17.0813 0.0500025
rtoes -12.5548
lfemur -49.359 -14.1002 -18.2547
ltibia 53.278
lfoot -7.66972 -15.823
ltoes -6.45609
287
root -0.649489 17.8385 -2.22178 -171.657 -99.5424 173.224
lowerback 26.0671 2.23507 8.9343
upperback 5.57858 4.93385 1.02897
thorax -7.4975 2.03402 -5.47759
lowerneck 0.972763 -1.92614 1.94012
upperneck 1.9915 -2.53186 -2.46507
head 0.389701 -1.26623 -1.07572
rclavicle -1.39149e-014 -4.77083e-015
rhumerus -37.8842 8.03006 -76.9047
rradius 47.0692
rwrist 17.7346
rhand -39.5332 -37.9446
rfingers 7.12502
rthumb -12.5177 -67.5497
lclavicle -1.39149e-014 -4.77083e-015
lhumerus -59.5212 28.35 6.99261
lradius 139.429
lwrist 12.1347
lhand -10.6824 -10.7361
lfingers 7.12502
lthumb 15.3265 18.6759
rfemur -18.2276 -3.83395 26.1058
rtibia 33.9661
rfoot -16.663 -0.773691
rtoes -12.8776
lfemur -50.3224 -15.1402 -18.8874
ltibia 59.7455
lfoot -10.7406 -12.3312
ltoes -21.5114
288
root -0.639828 17.9148 -2.22895 -173.619 -100.403 175.821
lowerback 25.7787 2.18173 8.72107
upperback 5.50092 4.79074 0.900525
thorax -7.46905 1.97673 -5.44355
lowerneck 0.437218 -1.96158 2.59382
upperneck 2.40264 -2.58061 -2.52527
head 0.596165 -1.28882 -1.21745
rclavicle -1.98785e-015 -7.15625e-015
rhumerus -37.5378 6.61241 -76.5079
rradius 47.2369
rwrist 17.1385
rhand -39.5328 -38.3883
rfingers 7.12502
rthumb -12.5174 -67.9934
lclavicle -1.98785e-015 -7.15625e-015
lhumerus -58.9282 29.0087 8.52663
lradius 139.649
lwrist 11.479
lhand -10.4741 -11.0486
lfingers 7.12502
lthumb 15.5271 18.348
rfemur -18.2581 -3.6202 25.7373
rtibia 32.8466
rfoot -16.0382 -1.76882
rtoes -11.483
lfemur -51.5216 -15.8873 -19.5008
ltibia 66.3273
lfoot -12.3244 -10.3191
ltoes -26.6781
289
root -0.62183 17.9902 -2.24474 -173.768 -101.16 176.811
lowerback 25.4248 2.18015 8.62575
upperback 5.35494 4.75495 0.860108
thorax -7.46497 1.9662 -5.40809
lowerneck -0.0380921 -2.0042 2.58588
upperneck 2.56327 -2.65357 -2.08342
head 0.728721 -1.32322 -1.08609
rclavicle -4.73108e-014 -8.74653e-015
rhumerus -37.2892 5.21737 -76.1624
rradius 47.6342
rwrist 16.2546
rhand -39.4463 -38.8386
rfingers 7.12502
rthumb -12.434 -68.4488
lclavicle -4.73108e-014 -8.74653e-015
lhumerus -58.4012 29.5965 10.0242
lradius 139.828
lwrist 10.871
lhand -10.1332 -11.4305
lfingers 7.12502
lthumb 15.8554 17.9403
rfemur -18.4907 -2.85607 25.6605
rtibia 31.5572
rfoot -15.1015 -3.11676
rtoes -10.5305
lfemur -52.8867 -16.2519 -19.8453
ltibia 73.0333
lfoot -12.6004 -9.82528
ltoes -23.356
290
root -0.594457 18.0596 -2.27002 -173.987 -101.86 177.866
lowerback 25.2741 2.18409 8.45448
upperback 5.18124 4.72541 0.804
thorax -7.59922 1.95007 -5.36374
lowerneck -0.310914 -2.05432 2.70675
upperneck 2.43749 -2.7339 -1.77713
head 0.735854 -1.3602 -1.01377
rclavicle -3.06128e-014 -7.15625e-015
rhumerus -37.0814 3.73351 -75.9017
rradius 48.2814
rwrist 15.5806
rhand -39.3448 -39.7944
rfingers 7.12502
rthumb -12.3361 -69.4105
lclavicle -3.06128e-014 -7.15625e-015
lhumerus -57.9212 30.0296 11.2372
lradius 139.964
lwrist 10.3848
lhand -10.0553 -11.6292
lfingers 7.12502
lthumb 15.9304 17.7357
rfemur -18.8521 -1.98598 25.5354
rtibia 30.4374
rfoot -14.1109 -4.41489
rtoes -10.3419
lfemur -54.0971 -16.4737 -20.2167
ltibia 79.6421
lfoot -13.4896 -8.7492
ltoes -24.5734
291
root -0.568534 18.1379 -2.28872 -177.441 -102.58 182.084
lowerback 25.2886 2.14768 7.76866
upperback 5.06315 4.49953 0.520848
thorax -7.80713 1.84721 -5.23207
lowerneck -0.884665 -1.98422 2.41401
upperneck 2.44378 -2.66097 -1.25198
head 0.844984 -1.32218 -0.809083
rclavicle -1.27222e-014 -9.54166e-015
rhumerus -36.9017 2.45133 -75.8299
rradius 49.2315
rwrist 14.8459
rhand -39.7192 -40.8
rfingers 7.12502
rthumb -12.6971 -70.394
lclavicle -1.27222e-014 -9.54166e-015
lhumerus -57.5435 30.3107 11.975
lradius 140.016
lwrist 9.94947
lhand -10.3771 -11.5963
lfingers 7.12502
lthumb 15.6205 17.793
rfemur -19.1814 -1.52659 24.5415
rtibia 29.5774
rfoot -13.3889 -5.26308
rtoes -9.84839
lfemur -54.8216 -16.9255 -21.4647
ltibia 86.0735
lfoot -14.4846 -7.24743
ltoes -27.9732
292
root -0.540776 18.2048 -2.30292 -180.807 -103.349 186.126
lowerback 25.3972 2.04406 7.09022
upperback 4.99275 4.18663 0.245754
thorax -8.01735 1.70292 -5.07144
lowerneck -1.10215 -1.93958 2.47444
upperneck 1.96221 -2.60645 -1.3263
head 0.732045 -1.29757 -0.839657
rclavicle 3.45885e-014 7.95139e-016
rhumerus -36.6527 1.70029 -75.8487
rradius 50.485
rwrist 13.9387
rhand -40.1976 -41.2538
rfingers 7.12502
rthumb -13.1582 -70.8186
lclavicle 3.45885e-014 7.95139e-016
lhumerus -57.3655 30.5473 12.2203
lradius 140.019
lwrist 9.59679
lhand -10.6785 -11.5171
lfingers 7.12502
lthumb 15.3302 17.8947
rfemur -19.5981 -1.21533 23.4291
rtibia 29.1214
rfoot -12.7891 -5.95621
rtoes -10.4427
lfemur -55.2681 -17.4459 -22.8511
ltibia 92.4057
lfoot -15.1648 -5.83895
ltoes -29.3182
293
root -0.506142 18.2336 -2.32162 -181.852 -104.142 187.638
lowerback 25.6669 1.92251 6.89001
upperback 4.97809 3.99465 0.193614
thorax -8.20825 1.60596 -4.97536
lowerneck -1.36552 -1.93279 2.31528
upperneck 1.47745 -2.60177 -1.33906
head 0.628193 -1.29909 -0.815336
rclavicle -3.06128e-014 7.15625e-015
rhumerus -36.2712 1.22129 -75.7005
rradius 51.9645
rwrist 13.1624
rhand -40.4056 -41.3959
rfingers 7.12502
rthumb -13.3587 -70.9477
lclavicle -3.06128e-014 7.15625e-015
lhumerus -57.1248 30.7719 12.2894
lradius 139.967
lwrist 9.49511
lhand -10.9101 -11.4738
lfingers 7.12502
lthumb 15.1071 17.9549
rfemur -20.0934 -0.788878 22.8915
rtibia 29.166
rfoot -12.316 -6.84629
rtoes -11.7898
lfemur -55.5997 -17.9191 -23.6805
ltibia 98.7643
lfoot -15.6157 -5.29518
ltoes -28.6032
294
root -0.464063 18.2272 -2.34369 -182.371 -104.89 188.474
lowerback 26.0556 1.82336 6.8107
upperback 5.038 3.8694 0.233947
thorax -8.36411 1.5392 -4.86728
lowerneck -1.96027 -1.97914 2.13755
upperneck 1.25851 -2.6708 -1.55887
head 0.65857 -1.33954 -0.860459
rclavicle 4.29375e-014 -2.70347e-014
rhumerus -35.7541 0.994247 -75.4456
rradius 53.6409
rwrist 12.6753
rhand -40.5715 -41.4124
rfingers 7.12502
rthumb -13.5187 -70.9536
lclavicle 4.29375e-014 -2.70347e-014
lhumerus -56.836 31.0212 12.0636
lradius 139.827
lwrist 9.90017
lhand -11.1529 -11.3978
lfingers 7.12502
lthumb 14.8732 18.0483
rfemur -20.719 -0.171063 22.5039
rtibia 29.666
rfoot -12.1463 -7.9809
rtoes -12.0514
lfemur -55.7853 -18.4027 -24.3526
ltibia 105.063
lfoot -16.1098 -5.11622
ltoes -29.1495
295
root -0.414884 18.1891 -2.36635 -182.449 -105.514 188.81
lowerback 26.4572 1.73974 6.8411
upperback 5.11321 3.79529 0.310621
thorax -8.4962 1.49511 -4.79555
lowerneck -2.34404 -1.96816 1.99875
upperneck 0.799337 -2.66138 -1.84266
head 0.579844 -1.34141 -0.925723
rclavicle 1.59028e-015 -7.95139e-015
rhumerus -35.2611 1.09013 -75.1564
rradius 55.6194
rwrist 12.6143
rhand -40.2739 -41.5196
rfingers 7.12502
rthumb -13.2319 -71.0796
lclavicle 1.59028e-015 -7.95139e-015
lhumerus -56.5817 31.2103 11.3377
lradius 139.588
lwrist 10.7846
lhand -11.373 -11.2063
lfingers 7.12502
lthumb 14.6612 18.2553
rfemur -21.6549 -0.66866 22.3977
rtibia 30.5728
rfoot -12.4048 -8.04988
rtoes -12.2948
lfemur -55.9208 -18.802 -24.8666
ltibia 111.23
lfoot -16.5864 -4.95271
ltoes -31.4829
296
root -0.363383 18.1339 -2.38759 -181.945 -106.144 188.378
lowerback 26.9664 1.61686 7.12524
upperback 5.15301 3.75811 0.452653
thorax -8.70352 1.45771 -4.813
lowerneck -2.22655 -1.98579 1.87523
upperneck -0.017139 -2.68986 -2.13187
head 0.306788 -1.35939 -0.98487
rclavicle 4.21423e-014 5.24792e-014
rhumerus -34.9281 1.28072 -74.7103
rradius 57.8248
rwrist 13.1714
rhand -39.8371 -41.3973
rfingers 7.12502
rthumb -12.8108 -70.9842
lclavicle 4.21423e-014 5.24792e-014
lhumerus -56.2781 31.1685 10.3193
lradius 139.247
lwrist 11.8019
lhand -11.7629 -10.8507
lfingers 7.12502
lthumb 14.2855 18.6379
rfemur -22.565 -1.18099 22.5303
rtibia 31.7161
rfoot -12.7385 -8.23304
rtoes -13.1363
lfemur -55.7852 -19.2025 -25.1672
ltibia 117.058
lfoot -16.6662 -5.34193
ltoes -33.0922
297
root -0.307354 18.061 -2.40903 -181.337 -106.77 187.691
lowerback 27.5754 1.46933 7.51975
upperback 5.16527 3.74104 0.661696
thorax -8.98598 1.42191 -4.82933
lowerneck -1.855 -2.01664 1.68771
upperneck -0.803788 -2.73819 -2.55186
head 0.000583809 -1.38365 -1.07242
rclavicle 3.26007e-014 -2.22639e-014
rhumerus -34.6239 1.54025 -74.0617
rradius 60.0129
rwrist 14.2621
rhand -39.903 -40.6135
rfingers 7.12502
rthumb -12.8743 -70.1965
lclavicle 3.26007e-014 -2.22639e-014
lhumerus -55.9436 31.0584 9.23509
lradius 138.781
lwrist 12.7101
lhand -11.9793 -10.5935
lfingers 7.12502
lthumb 14.077 18.9097
rfemur -23.4003 -1.73829 22.7519
rtibia 32.9226
rfoot -13.2007 -8.44173
rtoes -12.6283
lfemur -55.4109 -19.4537 -25.3831
ltibia 122.444
lfoot -16.4883 -6.03144
ltoes -32.8039
298
root -0.252337 17.985 -2.43151 -180.448 -107.336 186.614
lowerback 28.1419 1.32421 7.9564
upperback 5.19711 3.75333 1.00936
thorax -9.2271 1.40064 -4.71783
lowerneck -1.26527 -1.99565 1.15195
upperneck -1.63354 -2.72146 -2.80293
head -0.346223 -1.36778 -1.04748
rclavicle -1.43125e-014 -2.54444e-014
rhumerus -34.2653 1.97703 -73.2058
rradius 62.0896
rwrist 15.6335
rhand -40.1563 -40.7236
rfingers 7.12502
rthumb -13.1184 -70.291
lclavicle -1.43125e-014 -2.54444e-014
lhumerus -55.7196 31.055 8.38699
lradius 138.313
lwrist 13.5193
lhand -11.9341 -10.5324
lfingers 7.12502
lthumb 14.1206 18.9678
rfemur -24.0701 -2.25621 23.1209
rtibia 34.0004
rfoot -13.8048 -8.61707
rtoes -10.4952
lfemur -54.7308 -19.2954 -25.3599
ltibia 127.2
lfoot -16.7857 -6.63273
ltoes -32.5141
299
root -0.207939 17.9275 -2.4543 -179.498 -107.945 185.514
lowerback 28.5243 1.2174 8.38597
upperback 5.20873 3.81245 1.41322
thorax -9.397 1.4062 -4.54377
lowerneck -0.998075 -2.04956 0.92002
upperneck -1.82539 -2.81381 -3.61414
head -0.461415 -1.40915 -1.25828
rclavicle -3.89618e-014 7.4743e-014
rhumerus -33.9183 2.21503 -72.1541
rradius 63.9407
rwrist 17.4551
rhand -40.985 -42.2859
rfingers 7.12502
rthumb -13.9171 -71.8001
lclavicle -3.89618e-014 7.4743e-014
lhumerus -55.4247 30.9757 8.10132
lradius 137.997
lwrist 14.34
lhand -12.1268 -10.3267
lfingers 7.12502
lthumb 13.9348 19.1864
rfemur -24.5553 -2.9353 23.5365
rtibia 34.7711
rfoot -14.1781 -8.69072
rtoes -9.77634
lfemur -53.8079 -18.7764 -25.0355
ltibia 130.993
lfoot -16.5308 -7.66961
ltoes -30.5687
